<svg width="62" height="62" viewBox="0 0 62 62" fill="none" xmlns="http://www.w3.org/2000/svg">
<path d="M3 31L9.22222 24.7778M9.22222 24.7778L31 3L52.7778 24.7778M9.22222 24.7778V55.8889C9.22222 56.714 9.55 57.5053 10.1334 58.0888C10.7169 58.6722 11.5082 59 12.3333 59H21.6667M52.7778 24.7778L59 31M52.7778 24.7778V55.8889C52.7778 56.714 52.45 57.5053 51.8666 58.0888C51.2831 58.6722 50.4918 59 49.6667 59H40.3333M21.6667 59C22.4918 59 23.2831 58.6722 23.8666 58.0888C24.45 57.5053 24.7778 56.714 24.7778 55.8889V43.4444C24.7778 42.6193 25.1056 41.828 25.689 41.2446C26.2724 40.6611 27.0638 40.3333 27.8889 40.3333H34.1111C34.9362 40.3333 35.7276 40.6611 36.311 41.2446C36.8944 41.828 37.2222 42.6193 37.2222 43.4444V55.8889C37.2222 56.714 37.55 57.5053 38.1334 58.0888C38.7169 58.6722 39.5082 59 40.3333 59M21.6667 59H40.3333" stroke="#41454E" stroke-width="6" stroke-linecap="round" stroke-linejoin="round"/>
</svg>
