<svg width="62" height="56" viewBox="0 0 62 56" fill="none" xmlns="http://www.w3.org/2000/svg">
<path d="M24.7778 12.3333H9.22222C7.57199 12.3333 5.98934 12.9889 4.82245 14.1558C3.65555 15.3227 3 16.9053 3 18.5556V46.5556C3 48.2058 3.65555 49.7884 4.82245 50.9553C5.98934 52.1222 7.57199 52.7778 9.22222 52.7778H52.7778C54.428 52.7778 56.0107 52.1222 57.1776 50.9553C58.3444 49.7884 59 48.2058 59 46.5556V18.5556C59 16.9053 58.3444 15.3227 57.1776 14.1558C56.0107 12.9889 54.428 12.3333 52.7778 12.3333H37.2222M24.7778 12.3333V9.22222C24.7778 7.57199 25.4333 5.98934 26.6002 4.82245C27.7671 3.65555 29.3498 3 31 3C32.6502 3 34.2329 3.65555 35.3998 4.82245C36.5667 5.98934 37.2222 7.57199 37.2222 9.22222V12.3333M24.7778 12.3333C24.7778 13.9836 25.4333 15.5662 26.6002 16.7331C27.7671 17.9 29.3498 18.5556 31 18.5556C32.6502 18.5556 34.2329 17.9 35.3998 16.7331C36.5667 15.5662 37.2222 13.9836 37.2222 12.3333M21.6667 37.2222C23.3169 37.2222 24.8995 36.5667 26.0664 35.3998C27.2333 34.2329 27.8889 32.6502 27.8889 31C27.8889 29.3498 27.2333 27.7671 26.0664 26.6002C24.8995 25.4333 23.3169 24.7778 21.6667 24.7778C20.0164 24.7778 18.4338 25.4333 17.2669 26.6002C16.1 27.7671 15.4444 29.3498 15.4444 31C15.4444 32.6502 16.1 34.2329 17.2669 35.3998C18.4338 36.5667 20.0164 37.2222 21.6667 37.2222ZM21.6667 37.2222C25.7298 37.2222 29.1862 39.82 30.4711 43.4444M21.6667 37.2222C19.7359 37.2217 17.8524 37.8197 16.2756 38.9341C14.6988 40.0484 13.5063 41.6242 12.8622 43.4444M40.3333 27.8889H49.6667M40.3333 40.3333H46.5556" stroke="#41454E" stroke-width="4.5" stroke-linecap="round" stroke-linejoin="round"/>
</svg>
