<svg width="26" height="18" viewBox="0 0 26 18" fill="none" xmlns="http://www.w3.org/2000/svg">
<path d="M1 6.33333H25H1ZM1 11.6667H25H1ZM13 6.33333V17V6.33333ZM3.66667 17H22.3333C23.0406 17 23.7189 16.719 24.219 16.219C24.719 15.7189 25 15.0406 25 14.3333V3.66667C25 2.95942 24.719 2.28115 24.219 1.78105C23.7189 1.28095 23.0406 1 22.3333 1H3.66667C2.95942 1 2.28115 1.28095 1.78105 1.78105C1.28095 2.28115 1 2.95942 1 3.66667V14.3333C1 15.0406 1.28095 15.7189 1.78105 16.219C2.28115 16.719 2.95942 17 3.66667 17Z" stroke="#333333" stroke-width="2" stroke-linecap="round" stroke-linejoin="round"/>
</svg>
